<svg xmlns="http://www.w3.org/2000/svg" xmlns:xlink="http://www.w3.org/1999/xlink" version="1.1" x="0px" y="0px" viewBox="0 0 96 120" style="enable-background:new 0 0 96 96;" xml:space="preserve"><style type="text/css">
	.st0{fill-rule:evenodd;clip-rule:evenodd;}
</style><path d="M29.734,48.473c0.745,0,1.348-0.604,1.348-1.348s-0.603-1.348-1.348-1.348h-7.093c-0.745,0-1.348,0.604-1.348,1.348v9.802  c-1.4,0.543-2.397,1.9-2.397,3.49c0,2.065,1.68,3.745,3.745,3.745c2.065,0,3.745-1.68,3.745-3.745c0-1.589-0.997-2.947-2.397-3.49  v-8.453H29.734z M22.642,61.465c-0.578,0-1.049-0.47-1.049-1.049s0.47-1.049,1.049-1.049s1.049,0.47,1.049,1.049  S23.22,61.465,22.642,61.465z M67.971,60.416c0,2.065,1.68,3.745,3.745,3.745c2.065,0,3.745-1.68,3.745-3.745  c0-1.589-0.997-2.947-2.397-3.49v-9.802c0-0.744-0.603-1.348-1.348-1.348h-8.74c-0.745,0-1.348,0.604-1.348,1.348  s0.603,1.348,1.348,1.348h7.392v8.453C68.968,57.47,67.971,58.827,67.971,60.416z M71.716,61.465c-0.578,0-1.049-0.471-1.049-1.049  c0-0.578,0.471-1.049,1.049-1.049s1.049,0.47,1.049,1.049C72.765,60.995,72.294,61.465,71.716,61.465z M47.095,57.659  c-0.745,0-1.348,0.604-1.348,1.348v4.185c-1.401,0.542-2.397,1.904-2.397,3.494c0,2.065,1.68,3.745,3.745,3.745  c2.065,0,3.745-1.68,3.745-3.745c0-1.59-0.996-2.952-2.397-3.494v-4.185C48.443,58.263,47.839,57.659,47.095,57.659z M47.095,67.736  c-0.578,0-1.049-0.471-1.049-1.049s0.471-1.049,1.049-1.049s1.049,0.47,1.049,1.049S47.673,67.736,47.095,67.736z M29.213,66.401  H16.07c-1.775,0-3.22,1.444-3.22,3.22v7.5c0,1.775,1.444,3.22,3.22,3.22h2.893l-1.15,2.535c-0.189,0.417-0.154,0.902,0.095,1.287  c0.248,0.385,0.675,0.618,1.133,0.618h7.202c0.458,0,0.885-0.233,1.133-0.618c0.248-0.385,0.284-0.87,0.095-1.287l-1.15-2.535h2.893  c1.775,0,3.22-1.444,3.22-3.22v-7.5C32.433,67.846,30.989,66.401,29.213,66.401z M24.151,82.085h-3.019l0.791-1.744h1.436  L24.151,82.085z M29.737,77.121c0,0.284-0.24,0.524-0.524,0.524h-5.019c0,0-0.001,0-0.001,0H16.07c-0.284,0-0.524-0.24-0.524-0.524  v-7.5c0-0.284,0.24-0.524,0.524-0.524h13.143c0.284,0,0.524,0.24,0.524,0.524V77.121z M51.581,72.482h-8.909  c-1.444,0-2.618,1.175-2.618,2.618v14.909c0,1.472,1.197,2.669,2.669,2.669h8.807c1.472,0,2.669-1.197,2.669-2.669V75.1  C54.199,73.656,53.025,72.482,51.581,72.482z M51.503,89.982H42.75V75.178h8.753V89.982z M44.602,87.063  c0-0.744,0.603-1.348,1.348-1.348h2.71c0.745,0,1.348,0.604,1.348,1.348s-0.603,1.348-1.348,1.348h-2.71  C45.205,88.411,44.602,87.807,44.602,87.063z M83.048,82.428l-1.716-4.173V67.347c0-0.744-0.603-1.348-1.348-1.348H63.098  c-0.745,0-1.348,0.604-1.348,1.348v10.966l-1.405,4.439c-0.13,0.412-0.055,0.862,0.202,1.209c0.254,0.343,0.656,0.546,1.083,0.546  c0.005,0,0.01,0,0.014,0l20.171-0.218c0.447-0.005,0.863-0.231,1.109-0.604C83.172,83.312,83.218,82.841,83.048,82.428z   M64.446,68.695h14.19v8.478h-14.19V68.695z M63.477,81.791l0.608-1.921h14.996l0.718,1.745L63.477,81.791z M58.184,49.578  c1.627-2.332,2.594-5.155,2.631-8.199c0.002-0.03,0.005-0.061,0.005-0.092c0-0.01-0.001-0.02-0.002-0.03  c0-0.02,0.002-0.04,0.002-0.06c0-3.145-0.997-6.059-2.686-8.451c-0.036-0.066-0.078-0.13-0.126-0.191  c-0.016-0.019-0.033-0.037-0.049-0.055c-2.677-3.631-6.981-5.991-11.828-5.991c-4.966,0-9.361,2.479-12.021,6.263  c-0.03,0.034-0.059,0.07-0.087,0.108c-0.033,0.046-0.062,0.093-0.088,0.141c-1.573,2.339-2.493,5.152-2.493,8.177  c0,0.02,0.001,0.04,0.002,0.06c0,0.01-0.002,0.02-0.002,0.03c0,0.031,0.003,0.061,0.005,0.092c0.037,2.987,0.967,5.762,2.538,8.068  c0.028,0.05,0.059,0.1,0.094,0.148c0.026,0.035,0.053,0.068,0.082,0.099c2.665,3.743,7.036,6.192,11.97,6.192  c4.878,0,9.206-2.392,11.879-6.063c0.019-0.022,0.04-0.043,0.058-0.066C58.113,49.7,58.15,49.64,58.184,49.578z M34.228,42.636  h3.748c0.051,1.047,0.164,2.069,0.331,3.054c-0.983,0.341-1.896,0.749-2.718,1.22C34.882,45.611,34.412,44.167,34.228,42.636z   M35.558,35.543c0.838,0.47,1.768,0.875,2.769,1.212c-0.178,1.015-0.296,2.08-0.35,3.184h-3.772  C34.37,38.364,34.842,36.879,35.558,35.543z M58.058,39.94h-3.772c-0.057-1.173-0.188-2.302-0.385-3.373  c0.972-0.359,1.868-0.783,2.667-1.267C57.361,36.697,57.883,38.267,58.058,39.94z M51.588,39.94H47.48v-2.073  c1.322-0.083,2.606-0.266,3.821-0.539C51.44,38.152,51.539,39.024,51.588,39.94z M47.48,35.167V29.72  c1.236,0.763,2.414,2.526,3.197,4.993C49.665,34.936,48.592,35.091,47.48,35.167z M44.783,29.72v5.476  c-1.113-0.051-2.2-0.178-3.23-0.378C42.335,32.295,43.53,30.494,44.783,29.72z M44.783,37.895v2.045h-4.108  c0.047-0.87,0.138-1.702,0.266-2.49C42.165,37.693,43.456,37.842,44.783,37.895z M40.676,42.636h4.107v1.869  c-1.338,0.06-2.635,0.218-3.862,0.47C40.804,44.233,40.72,43.451,40.676,42.636z M44.783,47.205v5.564  c-1.27-0.778-2.48-2.603-3.261-5.158C42.56,47.4,43.656,47.262,44.783,47.205z M47.48,52.768v-5.551  c1.128,0.071,2.217,0.223,3.245,0.445C49.943,50.191,48.741,51.995,47.48,52.768z M47.48,44.52v-1.884h4.107  c-0.046,0.84-0.133,1.645-0.256,2.408C50.104,44.774,48.81,44.597,47.48,44.52z M54.286,42.636h3.748  c-0.19,1.58-0.687,3.066-1.432,4.397c-0.8-0.474-1.696-0.89-2.665-1.241C54.115,44.776,54.233,43.719,54.286,42.636z M54.98,33.111  c-0.526,0.306-1.104,0.583-1.727,0.828c-0.387-1.223-0.868-2.331-1.428-3.294C53.01,31.286,54.076,32.123,54.98,33.111z   M40.439,30.644c-0.588,1.011-1.09,2.179-1.485,3.474c-0.664-0.234-1.282-0.504-1.848-0.804  C38.046,32.238,39.173,31.33,40.439,30.644z M37.148,49.13c0.543-0.295,1.137-0.56,1.773-0.793c0.32,1.066,0.712,2.062,1.176,2.959  c0.067,0.13,0.137,0.253,0.206,0.378C39.112,51.008,38.046,50.145,37.148,49.13z M51.959,51.673  c0.069-0.125,0.139-0.248,0.206-0.378c0.451-0.871,0.835-1.835,1.15-2.868c0.615,0.238,1.188,0.507,1.711,0.804  C54.147,50.204,53.111,51.03,51.959,51.673z M13.229,32.507c0-4.718,3.331-8.796,7.813-9.858c-0.107-0.773-0.16-1.555-0.16-2.337  c0-9.368,7.621-16.989,16.989-16.989c5.366,0,10.367,2.513,13.573,6.771c1.192-0.32,2.421-0.482,3.667-0.482  c5.421,0,10.297,3.063,12.665,7.876h0.609c6.933,0,12.574,5.641,12.574,12.574c0,6.933-5.641,12.574-12.574,12.574h-4.884  c-0.745,0-1.348-0.603-1.348-1.348c0-0.745,0.603-1.348,1.348-1.348h4.884c5.447,0,9.878-4.431,9.878-9.878  c0-5.447-4.431-9.878-9.878-9.878h-1.477c-0.545,0-1.036-0.328-1.245-0.831c-1.777-4.28-5.919-7.045-10.551-7.045  c-1.288,0-2.553,0.213-3.76,0.634c-0.581,0.202-1.226-0.014-1.567-0.527c-2.66-4.005-7.114-6.396-11.914-6.396  c-7.881,0-14.293,6.412-14.293,14.293c0,1.062,0.118,2.122,0.349,3.152c0.086,0.38,0.002,0.778-0.228,1.093  c-0.23,0.314-0.585,0.513-0.973,0.546c-3.814,0.325-6.801,3.577-6.801,7.405c0,4.098,3.334,7.432,7.432,7.432h5.271  c0.745,0,1.348,0.603,1.348,1.348c0,0.745-0.603,1.348-1.348,1.348h-5.271C17.773,42.636,13.229,38.092,13.229,32.507z" fill="#2196f3"/><text x="0" y="111" fill="#2196f3" font-size="5px" font-weight="bold" font-family="'Helvetica Neue', Helvetica, Arial-Unicode, Arial, Sans-serif">Created by Arif Hariyanto</text><text x="0" y="116" fill="#2196f3" font-size="5px" font-weight="bold" font-family="'Helvetica Neue', Helvetica, Arial-Unicode, Arial, Sans-serif">from the Noun Project</text></svg>