<svg xmlns="http://www.w3.org/2000/svg" data-name="Layer 1" viewBox="0 0 80 100" x="0px" y="0px"><title>Artboard 36</title><path d="M67,52H46a2,2,0,0,0,0,4H67a2.0027,2.0027,0,0,1,2,2v8a2.0027,2.0027,0,0,1-2,2H13a2.0027,2.0027,0,0,1-2-2V58a2.0027,2.0027,0,0,1,2-2H34a2,2,0,0,0,0-4H13a6.0066,6.0066,0,0,0-6,6v8a6.0066,6.0066,0,0,0,6,6H67a6.0066,6.0066,0,0,0,6-6V58A6.0066,6.0066,0,0,0,67,52Z" fill="#f48b36"/><circle cx="63" cy="62" r="2" fill="#f48b36"/><circle cx="57" cy="62" r="2" fill="#f48b36"/><circle cx="51" cy="62" r="2" fill="#f48b36"/><path d="M17,48H34a2,2,0,0,0,0-4H17a2.0027,2.0027,0,0,1-2-2V22H65V42a2.0027,2.0027,0,0,1-2,2H46a2,2,0,0,0,0,4H63a6.0066,6.0066,0,0,0,6-6V14a6.0066,6.0066,0,0,0-6-6H17a6.0066,6.0066,0,0,0-6,6V42A6.0066,6.0066,0,0,0,17,48Zm0-36H63a2.0027,2.0027,0,0,1,2,2v4H15V14A2.0027,2.0027,0,0,1,17,12Z" fill="#f48b36"/><circle cx="19" cy="15" r="2" fill="#f48b36"/><circle cx="25" cy="15" r="2" fill="#f48b36"/><circle cx="31" cy="15" r="2" fill="#f48b36"/><path d="M42.5859,41.4141a2,2,0,0,0,2.8282-2.8282l-4-4a2,2,0,0,0-2.8282,0l-4,4a2,2,0,0,0,2.8282,2.8282L38,40.8281V59.1719l-.5859-.586a2,2,0,0,0-2.8282,2.8282l4,4a1.9995,1.9995,0,0,0,2.8282,0l4-4a2,2,0,0,0-2.8282-2.8282L42,59.1719V40.8281Z" fill="#f48b36"/><text x="0" y="95" fill="#f48b36" font-size="5px" font-weight="bold" font-family="'Helvetica Neue', Helvetica, Arial-Unicode, Arial, Sans-serif">Created by Timofei Rostilov</text><text x="0" y="100" fill="#f48b36" font-size="5px" font-weight="bold" font-family="'Helvetica Neue', Helvetica, Arial-Unicode, Arial, Sans-serif">from the Noun Project</text></svg>